<svg width="20" height="20" viewBox="0 0 20 20" fill="none" xmlns="http://www.w3.org/2000/svg">
<path fill-rule="evenodd" clip-rule="evenodd" d="M9.15527e-05 9.9993C9.15527e-05 4.4803 4.48009 -0.000701904 10.0001 -0.000701904C15.5301 -0.000701904 20.0001 4.4803 20.0001 9.9993C20.0001 15.5203 15.5301 19.9993 10.0001 19.9993C4.48009 19.9993 9.15527e-05 15.5203 9.15527e-05 9.9993ZM9.12009 6.2093C9.12009 5.7303 9.52009 5.3293 10.0001 5.3293C10.4801 5.3293 10.8701 5.7303 10.8701 6.2093V10.6293C10.8701 11.1103 10.4801 11.4993 10.0001 11.4993C9.52009 11.4993 9.12009 11.1103 9.12009 10.6293V6.2093ZM10.0101 14.6803C9.52009 14.6803 9.13009 14.2803 9.13009 13.8003C9.13009 13.3203 9.52009 12.9303 10.0001 12.9303C10.4901 12.9303 10.8801 13.3203 10.8801 13.8003C10.8801 14.2803 10.4901 14.6803 10.0101 14.6803Z" fill="#595D63"/>
</svg>
