<svg width="20" height="20" viewBox="0 0 20 20" fill="none" xmlns="http://www.w3.org/2000/svg">
<path d="M7.13478 15.7156C7.13478 14.9351 7.77217 14.3023 8.55844 14.3023H11.4326C11.8102 14.3023 12.1723 14.4512 12.4393 14.7163C12.7063 14.9813 12.8563 15.3408 12.8563 15.7156V18.7733C12.8563 20 13.4152 20 14.0829 20H16.0438C19.5 20 19.5 18.6018 19.5 16.5778V7.86686C19.5 7.13246 19.1721 6.43584 18.6046 5.96467L11.934 0.675869C10.7737 -0.251438 9.11111 -0.221498 7.98539 0.746979L1.46701 5.96467C0.872741 6.42195 0.517552 7.12064 0.5 7.86686V16.5689C0.5 18.4639 0.5 20 3.95617 20H5.87229C6.55123 20 7.10792 20 7.10792 18.7822L7.13478 15.7156Z" fill="#595D63"/>
</svg>
