<svg width="20" height="20" viewBox="0 0 20 20" fill="none" xmlns="http://www.w3.org/2000/svg">
<path d="M8.78486 5.67445e-07C8.57187 5.67445e-07 8.39046 0.154213 8.35581 0.364131L7.93287 2.95347C7.42433 3.10122 6.93923 3.30095 6.48232 3.54959L4.34555 2.02344C4.17264 1.90014 3.9362 1.9195 3.78571 2.06929L2.09397 3.75917C1.94483 3.90863 1.92445 4.14368 2.04573 4.31624L3.54894 6.46637C3.29653 6.92629 3.09237 7.41372 2.94086 7.92697L0.362471 8.35598C0.153211 8.39131 -0.000337492 8.57235 2.28128e-06 8.78499V11.1763C-0.000677179 11.3872 0.150493 11.5679 0.358055 11.605L2.93814 12.0618C3.08897 12.5744 3.29178 13.0622 3.54452 13.5224L2.02263 15.6515C1.89931 15.824 1.91868 16.0605 2.06849 16.2109L3.75956 17.9025C3.90869 18.0516 4.14309 18.0723 4.31566 17.9518L6.47043 16.4436C6.9287 16.6936 7.41482 16.8947 7.92506 17.0442L8.35581 19.6365C8.3908 19.8461 8.57221 20 8.78452 20H11.1761C11.3874 20.0003 11.5684 19.8488 11.6051 19.641L12.0661 17.038C12.5743 16.8865 13.0584 16.6824 13.5143 16.431L15.6833 17.9528C15.8562 18.0737 16.091 18.0533 16.2404 17.9042L17.9312 16.212C18.082 16.0611 18.101 15.8234 17.9764 15.6505L16.4297 13.5037C16.677 13.0499 16.8764 12.569 17.0242 12.0645L19.6409 11.606C19.8488 11.569 20.0003 11.3882 20 11.177V8.78567C20 8.57269 19.8458 8.3913 19.6358 8.357L17.0235 7.92969C16.8743 7.42561 16.6746 6.94565 16.4273 6.49219L17.9526 4.31895C18.0739 4.14606 18.0535 3.91135 17.904 3.76189L16.2122 2.07133C16.0618 1.92052 15.824 1.9015 15.6511 2.02616L13.5099 3.5659C13.054 3.31522 12.5696 3.11209 12.0603 2.96196L11.6051 0.360055C11.5688 0.151835 11.3877 -0.000339085 11.1761 5.67445e-07H8.78486Z" fill="#595D63"/>
<circle cx="10" cy="10" r="3" fill="white"/>
</svg>
