<svg width="30" height="24" viewBox="0 0 30 24" fill="none" xmlns="http://www.w3.org/2000/svg">
<path d="M27.4833 12C27.4833 8.59701 26.1024 5.50746 23.8753 3.26866L25.657 1.47761C28.3296 4.16418 30 7.8806 30 11.9776C30 16.0746 28.3519 19.791 25.657 22.4776L23.8753 20.6866C26.1247 18.4702 27.4833 15.403 27.4833 12ZM19.2873 7.90299C20.3341 8.95522 20.98 10.4104 20.98 12C20.98 13.5896 20.3341 15.0448 19.2873 16.097L17.5056 14.306C18.1069 13.7239 18.4633 12.8955 18.4633 12C18.4633 11.1045 18.1069 10.2761 17.5056 9.69403L19.2873 7.90299ZM22.4722 4.6791C24.343 6.5597 25.4788 9.13433 25.4788 11.9776C25.4788 14.8209 24.3207 17.4179 22.4722 19.2761L20.6904 17.4851C22.0935 16.0746 22.9621 14.1269 22.9621 11.9552C22.9621 9.80597 22.0935 7.85821 20.6904 6.42537L22.4722 4.6791ZM0 6.58209H3.14031V17.3955H0V6.58209ZM4.45434 6.58209L15.4788 0V24L4.45434 17.3955V6.58209Z" fill="white"/>
</svg>
